<?xml version="1.0" encoding="utf-8"?>
<!-- Generator: Adobe Illustrator 15.1.0, SVG Export Plug-In . SVG Version: 6.00 Build 0)  -->
<!DOCTYPE svg PUBLIC "-//W3C//DTD SVG 1.1//EN" "http://www.w3.org/Graphics/SVG/1.1/DTD/svg11.dtd">
<svg version="1.1" id="Layer_1" xmlns="http://www.w3.org/2000/svg" xmlns:xlink="http://www.w3.org/1999/xlink" x="0px" y="0px"
	 width="990px" height="630px" viewBox="-41.5 -35.5 990 630" enable-background="new -41.5 -35.5 990 630" xml:space="preserve">
<path d="M844.414,327.978c-0.592-84.875-30.225-164.962-83.528-225.579C705.235,39.114,630.623,4.267,550.814,4.267
	c-65.34,0-127.161,23.259-178.762,67.264c-16.498,14.069-31.35,29.915-44.609,47.144l-17.128,17.12
	c-10.358-6.114-21.625-10.811-33.557-13.892V39.327c0-18.019-14.621-32.631-32.631-32.631s-32.622,14.612-32.622,32.631v82.584
	c-11.948,3.082-23.207,7.778-33.565,13.9L119.548,77.42c-12.734-12.74-33.395-12.74-46.13,0c-12.744,12.743-12.744,33.399,0,46.139
	l58.392,58.393c-6.121,10.367-10.818,21.625-13.899,33.564H35.334c-18.032,0-32.631,14.612-32.631,32.622
	c0,18.023,14.599,32.631,32.631,32.631h82.576c3.081,11.953,7.778,23.202,13.899,33.557l-58.392,58.392
	c-12.744,12.736-12.744,33.396,0,46.136c6.374,6.396,14.721,9.576,23.067,9.576s16.702-3.181,23.062-9.576l47.005-46.987
	c7.721,86.431,80.521,154.43,168.92,154.43h313.217c107.955,0,195.768-87.82,195.768-195.763
	C844.457,329.667,844.432,328.824,844.414,327.978z M244.128,169.833c16.507,0,31.806,5.135,44.423,13.864
	c-1.703,3.78-3.463,7.534-5.04,11.397c-26.009,8.338-49.776,22.941-69.363,42.98c-15.233,15.581-27.104,33.626-35.281,53.204
	c-8.203-12.379-13.035-27.178-13.035-43.15C165.831,204.884,200.892,169.833,244.128,169.833z M648.698,461.033L648.698,461.033
	H335.481c-35.799,0-67.383-18.057-86.191-45.522c-0.891-1.299-1.673-2.659-2.495-3.984c-0.834-1.347-1.689-2.681-2.454-4.058
	c-0.756-1.347-1.421-2.742-2.116-4.102c-0.738-1.478-1.469-2.946-2.138-4.459c-0.604-1.363-1.164-2.758-1.707-4.148
	c-0.63-1.612-1.239-3.237-1.8-4.901c-0.451-1.364-0.886-2.733-1.299-4.11c-0.521-1.799-0.969-3.615-1.395-5.439
	c-0.305-1.309-0.617-2.625-0.882-3.941c-0.4-2.107-0.695-4.245-0.961-6.396c-0.151-1.113-0.338-2.208-0.456-3.328
	c-0.309-3.303-0.504-6.64-0.504-10.011c0-3.198,0.187-6.357,0.47-9.473c0.091-0.942,0.213-1.886,0.321-2.829
	c0.266-2.232,0.596-4.457,1.004-6.664c0.178-0.943,0.33-1.904,0.543-2.855c0.578-2.768,1.272-5.509,2.063-8.177
	c0.074-0.227,0.117-0.448,0.187-0.669c0,0,0,0-0.008,0c11.853-38.584,45.465-67.621,86.521-72.844l0,0
	c3.523-0.452,7.082-0.739,10.706-0.817c1.442-5.279,3.076-10.467,4.806-15.59c0.248-0.738,0.486-1.494,0.747-2.233
	c1.69-4.888,3.523-9.693,5.462-14.425c0.339-0.839,0.687-1.664,1.034-2.485c2.003-4.749,4.102-9.442,6.352-14.021
	c0.27-0.561,0.552-1.112,0.839-1.664c2.381-4.806,4.867-9.524,7.5-14.121l0,0c5.196-9.077,10.893-17.736,17.006-25.971l0,0
	c3.142-4.231,6.396-8.342,9.771-12.34c0.044-0.052,0.088-0.117,0.131-0.169c3.284-3.88,6.674-7.634,10.163-11.275
	c0.239-0.257,0.49-0.504,0.738-0.765c7.117-7.387,14.639-14.272,22.533-20.591c37.059-29.667,82.168-47.108,130.857-47.108
	c125.727,0,227.678,116.081,228.347,259.562c0,0.481,0.044,0.96,0.044,1.441C779.204,402.594,720.772,461.033,648.698,461.033z"/>
</svg>
