<?xml version="1.0" encoding="utf-8"?>
<!-- Generator: Adobe Illustrator 15.1.0, SVG Export Plug-In . SVG Version: 6.00 Build 0)  -->
<!DOCTYPE svg PUBLIC "-//W3C//DTD SVG 1.1//EN" "http://www.w3.org/Graphics/SVG/1.1/DTD/svg11.dtd">
<svg version="1.1" id="Layer_1" xmlns="http://www.w3.org/2000/svg" xmlns:xlink="http://www.w3.org/1999/xlink" x="0px" y="0px"
	 width="956px" height="980px" viewBox="74.5 70.5 956 980" enable-background="new 74.5 70.5 956 980" xml:space="preserve">
<path d="M943.211,594.4h-71.468c-19.742,0-35.751-16.306-35.751-36.4c0-20.103,16.009-36.418,35.751-36.418h71.468
	c19.744,0,35.751,16.315,35.751,36.418C978.962,578.095,962.99,594.4,943.211,594.4z M802.808,352.02
	c-13.966,14.218-36.642,14.218-50.555,0c-13.965-14.216-13.965-37.271,0-51.497l50.555-51.488c13.912-14.226,36.589-14.226,50.555,0
	c13.912,14.217,13.912,37.271,0,51.488L802.808,352.02z M550.018,776.472c-118.461,0-214.508-97.819-214.508-218.472
	c0-120.67,96.029-218.489,214.508-218.489c118.461,0,214.473,97.819,214.473,218.489
	C764.49,678.652,668.479,776.472,550.018,776.472z M550.018,412.347c-78.975,0-143.005,65.207-143.005,145.653
	c0,80.43,64.048,145.654,143.005,145.654c78.956,0,142.97-65.225,142.97-145.654C692.987,477.554,628.991,412.347,550.018,412.347z
	 M550.018,266.692c-19.752,0-35.751-16.315-35.751-36.418v-72.819c0-20.102,15.999-36.418,35.751-36.418
	c19.742,0,35.751,16.316,35.751,36.418v72.819C585.769,250.377,569.727,266.692,550.018,266.692z M297.235,352.02l-50.545-51.497
	c-13.965-14.217-13.965-37.271,0-51.488c13.956-14.226,36.59-14.226,50.545,0l50.555,51.488c13.957,14.226,13.957,37.281,0,51.497
	C333.834,366.237,311.201,366.237,297.235,352.02z M264.025,558c0,20.095-16.017,36.4-35.751,36.4h-71.503
	c-19.735,0-35.733-16.306-35.733-36.4c0-20.103,16.017-36.418,35.733-36.418h71.503C248.026,521.582,264.025,537.897,264.025,558z
	 M297.235,763.989c13.966-14.208,36.599-14.208,50.555,0c13.957,14.208,13.957,37.271,0,51.497l-50.555,51.479
	c-13.955,14.226-36.589,14.226-50.545,0c-13.965-14.208-13.965-37.271,0-51.479L297.235,763.989z M550.018,849.308
	c19.742,0,35.751,16.29,35.751,36.401v72.835c0,20.112-16.009,36.418-35.751,36.418c-19.752,0-35.751-16.306-35.751-36.418v-72.835
	C514.267,865.598,530.266,849.308,550.018,849.308z M802.808,763.989l50.555,51.497c13.912,14.208,13.912,37.271,0,51.479
	c-13.966,14.226-36.643,14.226-50.555,0l-50.555-51.479c-13.965-14.226-13.965-37.289,0-51.497
	C766.166,749.764,788.807,749.764,802.808,763.989z"/>
</svg>
