<?xml version="1.0" encoding="utf-8"?>
<!-- Generator: Adobe Illustrator 15.1.0, SVG Export Plug-In . SVG Version: 6.00 Build 0)  -->
<!DOCTYPE svg PUBLIC "-//W3C//DTD SVG 1.1//EN" "http://www.w3.org/Graphics/SVG/1.1/DTD/svg11.dtd">
<svg version="1.1" id="Layer_1" xmlns="http://www.w3.org/2000/svg" xmlns:xlink="http://www.w3.org/1999/xlink" x="0px" y="0px"
	 width="1038.104px" height="1008.1px" viewBox="-127.698 -52.69 1038.104 1008.1"
	 enable-background="new -127.698 -52.69 1038.104 1008.1" xml:space="preserve">
<path d="M775.417,696.271c-20.483,0-37.071-16.588-37.071-37.089c0-20.465,16.588-37.09,37.071-37.09s37.092,16.625,37.092,37.09
	C812.509,679.684,795.9,696.271,775.417,696.271z M608.528,572.071v-81.243c44.298-25.663,74.181-73.458,74.181-128.331
	c0-81.924-66.411-148.354-148.342-148.354c-29.685,0-57.176,8.902-80.374,23.941C431.155,139.483,343.221,65.8,237.68,65.8
	c-122.896,0-222.522,99.626-222.522,222.507c0,65.822,28.769,124.772,74.181,165.502v91.17
	C0.75,493.651-59.006,398.064-59.006,288.307C-59.006,124.46,73.817-8.362,237.68-8.362c111.345,0,208.253,61.403,258.981,152.127
	c12.315-2.101,24.793-3.803,37.706-3.803c122.879,0,222.505,99.626,222.505,222.534C756.872,459.352,694.88,541.5,608.528,572.071z
	 M-3.369,714.818c20.472,0,37.071,16.606,37.071,37.09s-16.6,37.089-37.071,37.089c-20.476,0-37.092-16.605-37.092-37.089
	C-40.461,731.407-23.863,714.818-3.369,714.818z M182.046,399.586c0-20.465-1.93-37.089,18.545-37.089
	c20.474,0,18.544,16.624,18.544,37.089v445.048h-37.089l0,0l0,0c0-40.967-33.197-74.181-74.163-74.181v-37.09
	c28.615,0,54.468,11.138,74.163,28.867V399.586z M348.935,659.183c-20.475,0-18.547-16.588-18.547-37.09V473.768
	c0-20.483-1.928-37.09,18.547-37.09c20.463,0,18.545,16.606,18.545,37.09v148.325C367.479,642.595,369.397,659.183,348.935,659.183z
	 M348.935,733.363c20.463,0,37.089,16.606,37.089,37.09c0,20.482-16.626,37.091-37.089,37.091
	c-20.475,0-37.092-16.608-37.092-37.091C311.843,749.952,328.46,733.363,348.935,733.363z M497.276,362.497
	c20.482,0,18.544,16.624,18.544,37.089v334.122c33.813-45.149,87.602-74.525,148.345-74.525v37.089
	c-81.933,0-148.345,66.43-148.345,148.362h-37.089c0-5.052,0.381-10.032,0.761-14.958c-0.997-6.196-0.761-13.802-0.761-22.132
	V399.586C478.731,379.121,476.793,362.497,497.276,362.497z"/>
</svg>
