<?xml version="1.0" encoding="utf-8"?>
<!-- Generator: Adobe Illustrator 15.1.0, SVG Export Plug-In . SVG Version: 6.00 Build 0)  -->
<!DOCTYPE svg PUBLIC "-//W3C//DTD SVG 1.1//EN" "http://www.w3.org/Graphics/SVG/1.1/DTD/svg11.dtd">
<svg version="1.1" id="Layer_1" xmlns="http://www.w3.org/2000/svg" xmlns:xlink="http://www.w3.org/1999/xlink" x="0px" y="0px"
	 width="976px" height="1124px" viewBox="-71.446 -65.5 976 1124" enable-background="new -71.446 -65.5 976 1124"
	 xml:space="preserve">
<path id="path5156" d="M349.653,477.979l37.593,55.517h69.997l32.303-55.517l-34.028-59.123h-70.138L349.653,477.979z
	 M378.474,924.463V798.939l-70.137,39.44l-35.728-20.458v-44.229l104.017-59.109v-82.51l-75.465,48.499v-87.41l-72.132,41.575
	v118.507l-39.458,24.439l-33.342-22.055V676.21L46.754,737.975L0,718.296v-50.097l114.904-62.812l-71.872-36.126v-45.836
	l40.787-22.333l103.088,60.705l71.594-41.314l-1.727-1.318l-73.2-41.983l71.075-44.104l-71.335-41.311L80.236,452.332l-38.66-19.256
	v-45.701l69.756-39.189L0,287.734v-50.081l42.772-22.041l109.726,63.36v-80.765l33.072-22.319l40.536,23.382l-0.27,120.888
	l73.719,42.104l-0.26-85.41l77.321,41.585v-82.501L272.6,176.688v-43.836l35.729-20.722l70.136,39.458V26.311L418.601,0
	l40.498,26.311v125.277l72.671-40.257l36.554,24.18v39.459l-107.619,60.966v82.501l73.609-44.902v89.806l75.835-41.33V192.765
	l36.544-17.006l38.383,17.006v82.635l112.908-60.984l39.469,24.046v46.754l-110.264,62.706l68.947,38.646v44.647L760.4,451.014
	l-105.873-62.571l-73.199,46.495l70.796,44.123l-72.931,41.97l75.334,39.449L760.4,501.352l34.011,24.041v42.661l-66.423,37.314
	l105.752,62.831v49.316l-44.769,20.459l-103.896-59.138v78.24l-37.334,20.866l-36.525-20.866V638.301l-76.912-43.821v82.511
	l-73.607-44.917v82.51l104.024,59.109v46.764l-35.894,17.933l-69.737-39.449v125.533L418.601,950.5L378.474,924.463z"/>
</svg>
