<?xml version="1.0" encoding="utf-8"?>
<!-- Generator: Adobe Illustrator 15.1.0, SVG Export Plug-In . SVG Version: 6.00 Build 0)  -->
<!DOCTYPE svg PUBLIC "-//W3C//DTD SVG 1.1//EN" "http://www.w3.org/Graphics/SVG/1.1/DTD/svg11.dtd">
<svg version="1.1" id="Layer_1" xmlns="http://www.w3.org/2000/svg" xmlns:xlink="http://www.w3.org/1999/xlink" x="0px" y="0px"
	 width="957.096px" height="849.085px" viewBox="-46.691 -37.227 957.096 849.085"
	 enable-background="new -46.691 -37.227 957.096 849.085" xml:space="preserve">
<g>
	<path d="M676.236,478.445H97.857C43.901,478.445,0,434.54,0,380.57c0-45.785,31.593-84.333,74.121-94.943
		c18.988-47.455,62.873-81.415,114.059-87.522C193.568,87.96,284.873,0,396.356,0c81.665,0,154.585,48.031,188.418,119.34
		c27.803-15.196,59.095-23.287,91.462-23.287c105.422,0,191.2,85.762,191.2,191.201C867.437,392.65,781.658,478.445,676.236,478.445
		L676.236,478.445z M97.23,350.194c-16.463,0.364-29.763,13.857-29.763,30.376c0,16.739,13.63,30.369,30.378,30.369h578.383
		c68.226,0,123.693-55.489,123.693-123.686c0-68.2-55.468-123.699-123.693-123.699c-31.953,0-62.28,12.187-85.406,34.274
		l-44.219,42.25l-12.181-59.904c-13.24-65.282-71.327-112.66-138.074-112.66c-77.706,0-140.934,63.198-140.934,140.903
		c0,6.315,0.471,12.854,1.364,19.509l6.341,45.837l-45.6-8.006c-4.304-0.749-8.607-1.139-12.779-1.139
		c-34.706,0-64.875,24.655-71.703,58.615l-5.638,28.01l-28.547-0.924C98.314,350.27,97.777,350.245,97.23,350.194L97.23,350.194z"/>
</g>
<path d="M255.605,552.187L255.605,552.187L255.605,552.187L255.605,552.187L255.605,552.187L255.605,552.187L255.605,552.187
	L255.605,552.187L255.605,552.187L255.605,552.187L255.605,552.187L255.605,552.187L255.605,552.187L255.605,552.187
	L255.605,552.187L255.605,552.187L255.605,552.187L255.605,552.187L255.605,552.187L255.605,552.187z M255.605,552.187
	L255.605,552.187L255.605,552.187L255.605,552.187L255.605,552.187L255.605,552.187L255.605,552.187L255.605,552.187
	L255.605,552.187L255.605,552.187L255.605,552.187z M255.605,552.187L255.605,552.187L255.605,552.187L255.605,552.187
	L255.605,552.187L255.605,552.187L255.605,552.187z M255.605,552.187L255.605,552.187L255.605,552.187L255.605,552.187
	L255.605,552.187z M255.605,552.187L255.605,552.187L255.605,552.187L255.605,552.187L255.605,552.187z"/>
<path d="M255.605,552.187c-11.49,43.905-4.917,65.692-8.115,112.868c-3.092,45.718-49.699,66.574-84.05,46.752
	c-34.367-19.84-39.572-70.606-1.516-96.164C201.167,589.315,223.28,584.105,255.605,552.187z"/>
<path d="M457.521,552.187L457.521,552.187L457.521,552.187L457.521,552.187L457.521,552.187L457.521,552.187L457.521,552.187
	L457.521,552.187L457.521,552.187L457.521,552.187L457.521,552.187L457.521,552.187L457.521,552.187L457.521,552.187
	L457.521,552.187L457.521,552.187L457.521,552.187L457.521,552.187L457.521,552.187L457.521,552.187z M457.521,552.187
	L457.521,552.187L457.521,552.187L457.521,552.187L457.521,552.187L457.521,552.187L457.521,552.187L457.521,552.187
	L457.521,552.187L457.521,552.187L457.521,552.187z M457.521,552.187L457.521,552.187L457.521,552.187L457.521,552.187
	L457.521,552.187L457.521,552.187L457.521,552.187z M457.521,552.187L457.521,552.187L457.521,552.187L457.521,552.187
	L457.521,552.187z M457.521,552.187L457.521,552.187L457.521,552.187L457.521,552.187L457.521,552.187z"/>
<path d="M491.22,552.187c-11.486,43.905-4.913,65.692-8.115,112.868c-3.083,45.718-49.7,66.574-84.041,46.752
	c-34.367-19.84-37.022-70.606,1.033-96.164C439.36,589.315,458.895,584.105,491.22,552.187z"/>
<path d="M671.883,552.187L671.883,552.187L671.883,552.187L671.883,552.187L671.883,552.187L671.883,552.187L671.883,552.187
	L671.883,552.187L671.883,552.187L671.883,552.187L671.883,552.187L671.883,552.187L671.883,552.187L671.883,552.187
	L671.883,552.187L671.883,552.187L671.883,552.187L671.883,552.187L671.883,552.187L671.883,552.187z M671.883,552.187
	L671.883,552.187L671.883,552.187L671.883,552.187L671.883,552.187L671.883,552.187L671.883,552.187L671.883,552.187
	L671.883,552.187L671.883,552.187L671.883,552.187z M671.883,552.187L671.883,552.187L671.883,552.187L671.883,552.187
	L671.883,552.187L671.883,552.187L671.883,552.187z M671.883,552.187L671.883,552.187L671.883,552.187L671.883,552.187
	L671.883,552.187z M671.883,552.187L671.883,552.187L671.883,552.187L671.883,552.187L671.883,552.187z"/>
<path d="M731.968,552.187c-11.487,43.905-4.914,65.692-8.116,112.868c-3.091,45.718-49.699,66.574-84.041,46.752
	c-34.375-19.84-39.568-70.606-1.524-96.164C677.516,589.315,699.625,584.105,731.968,552.187z"/>
</svg>
