<?xml version="1.0" encoding="utf-8"?>
<!-- Generator: Adobe Illustrator 15.1.0, SVG Export Plug-In . SVG Version: 6.00 Build 0)  -->
<!DOCTYPE svg PUBLIC "-//W3C//DTD SVG 1.1//EN" "http://www.w3.org/Graphics/SVG/1.1/DTD/svg11.dtd">
<svg version="1.1" id="Layer_1" xmlns="http://www.w3.org/2000/svg" xmlns:xlink="http://www.w3.org/1999/xlink" x="0px" y="0px"
	 width="864.749px" height="646.5px" viewBox="0 0 864.749 646.5" enable-background="new 0 0 864.749 646.5" xml:space="preserve">
<g id="Your_Icon">
	<path d="M850.543,285.953c0-63.381-49.829-114.791-111.277-114.791c-0.067,0-0.116,0.01-0.179,0.01
		c-3.654-79.846-70.646-143.505-152.818-143.505c-72.062,0-132.451,48.972-148.647,114.868c-19.771,0.689-37.64,9.125-50.858,22.419
		c-18.386-5.285-37.767-8.144-57.818-8.144c-118.873,0-215.579,99.786-215.579,222.422c0,2.489,0.065,4.959,0.152,7.434
		C59.145,390.295,16,437.046,16,494.023c0,56.92,43.062,103.651,97.358,107.354v0.266h556.291c0.015,0,0.049,0,0.062,0
		c53.711,0,97.378-45.05,97.378-100.437c0-50.753-36.674-92.772-84.092-99.5c-0.033-0.313-0.082-0.633-0.115-0.952h56.383
		C800.714,400.754,850.543,349.359,850.543,285.953z M739.266,501.206c0,39.423-30.985,71.529-69.162,71.742H118.15l-2.956-0.193
		C75.143,570.029,43.8,535.438,43.8,494.023c0-41.468,31.413-76.049,71.47-78.731l26.898-1.798l-0.877-27.805
		c-0.084-2.155-0.135-4.316-0.135-6.481c0-106.816,84.238-193.718,187.773-193.718c69.123,0,132.533,39.155,165.433,102.188
		l9.632,18.458l19.995-3.848c6.834-1.319,13.745-1.991,20.536-1.991c27.838,0,54.498,10.72,75.077,30.183
		c20.444,19.348,33.136,45.591,35.668,73.884l2.055,22.701l21.86,3.074C713.447,435.002,739.266,465.537,739.266,501.206z"/>
</g>
</svg>
